<?xml version="1.0" encoding="UTF-8"?>
<svg version="1.1" xmlns="http://www.w3.org/2000/svg" width="457" height="398">
<path d="M0 0 C14.3246564 11.50639441 26.55164159 25.22828319 34.8125 41.75 C35.4725 41.75 36.1325 41.75 36.8125 41.75 C39.7825 36.47 42.7525 31.19 45.8125 25.75 C46.4725 25.75 47.1325 25.75 47.8125 25.75 C48.02519531 25.05777344 48.23789063 24.36554687 48.45703125 23.65234375 C50.21658388 19.8847714 52.65112723 17.3021222 55.5 14.3125 C56.04382324 13.73483887 56.58764648 13.15717773 57.14794922 12.56201172 C60.83344498 8.68526148 64.53508595 4.97732817 68.8125 1.75 C69.48796875 1.22535156 70.1634375 0.70070313 70.859375 0.16015625 C83.20690751 -8.97618912 96.90250568 -15.62236134 111.8125 -19.25 C112.4715332 -19.41226074 113.13056641 -19.57452148 113.80957031 -19.74169922 C143.11068798 -26.6364984 173.31050862 -21.08675383 198.984375 -5.73828125 C205.13420737 -1.86908913 210.49686215 2.82226005 215.8125 7.75 C216.62203125 8.48992188 217.4315625 9.22984375 218.265625 9.9921875 C240.65487088 31.36374038 251.94744079 60.09010933 252.8125 90.76171875 C253.1905265 125.83042667 238.25304796 155.47781279 214.35643196 180.30133438 C211.7051902 182.99297608 209.03960214 185.66946701 206.36743164 188.34033203 C205.35438769 189.35637704 204.34154583 190.37262356 203.32888794 191.38905334 C200.61069551 194.1159805 197.88936285 196.83975166 195.16712117 199.5626359 C193.46476631 201.26570575 191.76312713 202.96948738 190.06173515 204.67351913 C184.12268874 210.6217745 178.1811086 216.56748501 172.23706055 222.51074219 C166.69792314 228.04927564 161.16442428 233.59339946 155.63345629 239.14009011 C150.87420545 243.9123872 146.11113712 248.68085094 141.34503835 253.44630897 C138.50237718 256.28871488 135.66129964 259.13266123 132.82405281 261.98047256 C130.16489974 264.64926079 127.50105001 267.31326734 124.83342361 269.97358513 C123.85368109 270.95227702 122.87565919 271.93269471 121.89945412 272.91491508 C120.57181493 274.25020759 119.2374612 275.57881424 117.90272522 276.90701294 C117.15670075 277.65358217 116.41067629 278.40015141 115.64204502 279.16934395 C113.8125 280.75 113.8125 280.75 111.8125 280.75 C111.1525 282.07 110.4925 283.39 109.8125 284.75 C109.1525 284.75 108.4925 284.75 107.8125 284.75 C107.4825 285.74 107.1525 286.73 106.8125 287.75 C105.1728279 289.11639342 103.50139872 290.4449419 101.8125 291.75 C97.99171189 295.36425902 94.5767416 299.27594269 91.16796875 303.2734375 C89.2780902 305.26047399 87.41136372 306.97859464 85.3293457 308.74682617 C80.0421631 313.34867404 75.12760044 318.30964749 70.1875 323.27734375 C69.19024323 324.27647028 68.19276198 325.2753728 67.19506836 326.27406311 C64.59544321 328.8774695 61.99883769 331.4838667 59.40289307 334.09094238 C56.74310237 336.76104274 54.0804066 339.42824277 51.41796875 342.09570312 C46.21333112 347.31100038 41.0118866 352.52946716 35.8125 357.75 C30.70166127 353.46935033 25.90736731 348.99136518 21.19778442 344.27572632 C20.09577896 343.17817754 20.09577896 343.17817754 18.97151077 342.05845606 C16.52437178 339.61994918 14.08078194 337.17791781 11.63720703 334.73583984 C9.87759197 332.98085681 8.11778058 331.2260706 6.35778809 329.47146606 C1.58661258 324.71337873 -3.18126962 319.95200764 -7.9481101 315.18957853 C-10.92952723 312.21093273 -13.91167734 309.23302152 -16.89395523 306.25523758 C-25.16553859 297.995839 -33.43617959 289.73549935 -41.70336723 281.47170067 C-42.23152735 280.94376011 -42.75968747 280.41581956 -43.30385245 279.87188081 C-43.83320725 279.34274428 -44.36256205 278.81360776 -44.90795791 278.26843679 C-45.98046648 277.19637167 -47.05297661 276.12430811 -48.12548828 275.05224609 C-48.65747964 274.52047617 -49.18947099 273.98870624 -49.73758329 273.44082208 C-58.35193891 264.83041193 -66.97302555 256.22677518 -75.59704684 247.62604706 C-84.47018195 238.77668305 -93.33762457 229.92164777 -102.19946396 221.06097186 C-107.16751459 216.09383467 -112.13791527 211.12910278 -117.11462021 206.17063522 C-121.79844208 201.50391832 -126.47442143 196.82944477 -131.14532471 192.14979172 C-132.85468586 190.43966301 -134.56658487 188.73206643 -136.28128433 187.02729034 C-144.97956729 178.37637706 -153.24206895 169.89188739 -160.1875 159.75 C-161.12965016 158.43559716 -161.12965016 158.43559716 -162.09083366 157.09464073 C-171.69476622 143.52290234 -176.2638905 126.90418133 -179.1875 110.75 C-179.3625708 109.79826904 -179.5376416 108.84653809 -179.71801758 107.8659668 C-184.35719341 77.07563859 -175.7846222 47.4501802 -157.875 22.5 C-146.14593405 7.52974139 -131.65580446 -4.56014858 -114.1875 -12.25 C-113.259375 -12.68828125 -112.33125 -13.1265625 -111.375 -13.578125 C-75.53950521 -29.74304928 -30.9182312 -24.06700793 0 0 Z M-100.1875 64.75 C-107.39130537 73.50213458 -110.73112938 84.25283646 -110.0078125 95.55859375 C-108.41572093 108.05163885 -102.61834028 118.26468232 -93.125 126.375 C-84.33251677 132.96571712 -73.26379359 135.3852141 -62.40625 134.53125 C-49.89490057 132.70374952 -40.2880127 126.19904709 -32.33203125 116.484375 C-24.91205417 106.00480243 -23.95282965 95.29180471 -25.1875 82.75 C-27.39580925 71.66901966 -34.91211837 62.0484855 -44.1875 55.75 C-63.79500066 45.89518847 -84.75034304 48.56378268 -100.1875 64.75 Z M104.8125 65.75 C97.51336024 77.08287489 95.41611808 87.44600957 96.8125 100.75 C99.83042511 112.75403394 107.54666214 122.10230736 117.8125 128.75 C127.55164568 134.22719968 137.83782761 135.87816841 148.8125 133.75 C161.62970745 129.87428232 170.62521225 122.68366224 177.2890625 111.20703125 C182.4825374 100.68951923 182.52962629 88.35248862 179.25 77.1875 C174.80778111 65.87861176 166.18842484 57.8879358 155.359375 52.78515625 C137.46082496 45.51043882 117.319206 51.22153326 104.8125 65.75 Z M20.6987915 166.74756718 C19.08923313 168.36004498 17.48207393 169.97489015 15.875 171.58984375 C14.74322136 172.72349143 13.6112188 173.85691559 12.47900391 174.99012756 C9.52427989 177.94863851 6.57257347 180.91014181 3.621521 183.87231445 C0.59978529 186.90434725 -2.42484394 189.93349067 -5.44921875 192.96289062 C-11.36478805 198.88912967 -17.27716729 204.81853842 -23.1875 210.75 C-21.5868244 214.72526224 -18.81606444 217.39020304 -15.81982422 220.34472656 C-15.00008621 221.16490265 -15.00008621 221.16490265 -14.16378784 222.00164795 C-12.36128907 223.80275649 -10.55181604 225.59668247 -8.7421875 227.390625 C-7.48907633 228.64000495 -6.23640681 229.88982801 -4.98416138 231.14007568 C-1.69074045 234.42586872 1.60864291 237.7056107 4.90930176 240.98413086 C8.27778994 244.33214253 11.6406076 247.68583907 15.00390625 251.0390625 C21.60123176 257.61495296 28.20486983 264.18446516 34.8125 270.75 C38.78776224 269.1493244 41.45270304 266.37856444 44.40722656 263.38232422 C44.95401062 262.83583221 45.50079468 262.28934021 46.06414795 261.72628784 C47.86525649 259.92378907 49.65918247 258.11431604 51.453125 256.3046875 C52.70250495 255.05157633 53.95232801 253.79890681 55.20257568 252.54666138 C58.48836872 249.25324045 61.7681107 245.95385709 65.04663086 242.65319824 C68.39464253 239.28471006 71.74833907 235.9218924 75.1015625 232.55859375 C81.67745296 225.96126824 88.24696516 219.35763017 94.8125 212.75 C93.21172197 208.78040815 90.44937748 206.11133843 87.46069336 203.15527344 C86.64336479 202.33509735 86.64336479 202.33509735 85.80952454 201.49835205 C84.01197659 199.69710707 82.20734381 197.90314984 80.40234375 196.109375 C79.15169947 194.85992288 77.90142468 193.61010082 76.65150452 192.35992432 C74.03434272 189.74432535 71.41385823 187.1321177 68.79077148 184.52246094 C65.42049307 181.16921598 62.05687915 177.80938159 58.69548702 174.44723129 C56.11624985 171.8682653 53.53442057 169.29190798 50.95169258 166.71643829 C49.70987245 165.47781003 48.4686656 164.23856659 47.22807121 162.99871063 C45.49952338 161.2723184 43.76773114 159.54925211 42.03491211 157.82714844 C41.51800812 157.30979126 41.00110413 156.79243408 40.46853638 156.25939941 C33.33839732 149.19400684 26.44659729 161.00962831 20.6987915 166.74756718 Z " fill="#DC4301" transform="translate(192.1875,33.25)"/>
</svg>
